<svg width="208" height="37" viewBox="0 0 208 37" fill="none" xmlns="http://www.w3.org/2000/svg">
<path d="M9.648 26.024L8.112 29.928C7.89867 30.5253 7.70667 31.144 7.536 31.784C7.36533 32.424 7.184 32.9787 6.992 33.448C6.8 33.9387 6.50133 34.3227 6.096 34.6C5.712 34.8773 5.27467 35.08 4.784 35.208C4.29333 35.3573 3.78133 35.4213 3.248 35.4C2.736 35.3787 2.27733 35.2827 1.872 35.112C0.954667 34.6853 0.634667 33.9813 0.912 33C1.89333 28.6907 2.81067 25.2347 3.664 22.632C4.53867 20.0293 5.25333 17.9813 5.808 16.488C6.384 14.9947 6.98133 13.416 7.6 11.752C7.664 11.1333 7.92 10.5787 8.368 10.088C8.816 9.59733 9.33867 9.192 9.936 8.872C10.5547 8.552 11.1947 8.328 11.856 8.2C12.5173 8.05066 13.104 8.02933 13.616 8.136C14.128 8.24267 14.5013 8.47733 14.736 8.84C14.992 9.20267 15.0133 9.72533 14.8 10.408C14.032 12.3707 13.488 13.7573 13.168 14.568C12.848 15.3787 12.56 16.104 12.304 16.744L11.408 18.856C11.856 18.8773 12.4213 18.8133 13.104 18.664C14.3413 18.3867 15.2373 18.2907 15.792 18.376C15.792 18.2693 15.8453 18.088 15.952 17.832C16.5493 15.2293 17.2213 12.84 17.968 10.664C18.5013 8.872 19.8773 7.93333 22.096 7.848C22.9707 7.848 23.632 8.06133 24.08 8.488C24.5707 8.936 24.6347 9.544 24.272 10.312C22.3093 15.816 20.9227 20.1573 20.112 23.336C19.1947 27.0053 18.5867 29.48 18.288 30.76C18.0107 32.04 17.7653 32.7973 17.552 33.032C17.3387 33.2667 17.1147 33.4267 16.88 33.512C16.6667 33.6187 16.4533 33.7147 16.24 33.8C16.0267 33.8853 15.856 34.0987 15.728 34.44H15.632C15.4613 34.824 15.088 35.1227 14.512 35.336C13.936 35.5493 13.3493 35.624 12.752 35.56C12.176 35.5173 11.6853 35.304 11.28 34.92C10.896 34.5573 10.8 33.992 10.992 33.224C11.2053 32.008 11.5573 30.7067 12.048 29.32C12.5387 27.912 12.9227 26.8133 13.2 26.024C13.4987 25.2347 13.744 24.4987 13.936 23.816C13.7653 23.9013 13.5947 23.9653 13.424 24.008C13.2747 24.0507 13.0827 24.136 12.848 24.264C12.6133 24.3707 12.368 24.4667 12.112 24.552C11.8773 24.6373 11.6427 24.7227 11.408 24.808C10.8107 25.0427 10.32 25.2773 9.936 25.512L9.648 26.024ZM13.264 23.88C13.2853 23.88 13.392 23.848 13.584 23.784C13.456 23.8267 13.3493 23.8587 13.264 23.88ZM27.3085 11.816C28.6525 10.28 30.1458 9.32 31.7885 8.936C32.9192 8.65867 33.9858 8.70133 34.9885 9.064C35.7778 8.232 36.8018 7.93333 38.0605 8.168C39.2125 8.38133 40.1938 9.032 41.0045 10.12C41.0472 10.2693 41.1325 10.4933 41.2605 10.792C41.4098 11.0907 41.5485 11.4213 41.6765 11.784C42.6152 13.96 42.6898 16.8187 41.9005 20.36C40.9192 24.7547 39.1805 28.4773 36.6845 31.528C35.9165 32.4667 35.0525 33.2453 34.0925 33.864C32.5565 35.0373 30.7218 35.56 28.5885 35.432C27.2658 35.368 26.1565 35.0373 25.2605 34.44C21.6978 32.6693 20.5352 28.9787 21.7725 23.368C22.7965 18.76 24.6418 14.9093 27.3085 11.816ZM27.6925 28.808L27.6605 29L27.7245 29.352C27.8525 30.0133 28.0658 30.5253 28.3645 30.888C28.6632 31.2293 28.9085 31.4427 29.1005 31.528C29.3138 31.3573 29.5272 31.1973 29.7405 31.048C29.9538 30.8987 30.1458 30.7173 30.3165 30.504C31.7672 28.712 32.8978 26.3653 33.7085 23.464C34.5192 20.5627 34.8178 17.8747 34.6045 15.4C33.7725 16.4667 32.8978 17.6933 31.9805 19.08C31.0632 20.4667 30.3378 21.6507 29.8045 22.632C28.5885 24.9147 27.8845 26.9733 27.6925 28.808ZM36.8445 5.128C36.6312 5.576 36.3112 5.97067 35.8845 6.312C35.4578 6.632 35.0098 6.86666 34.5405 7.016C34.0712 7.144 33.7512 7.208 33.5805 7.208C33.4098 7.208 33.0898 7.16533 32.6205 7.08H32.5885L32.5245 7.016C31.7565 6.67466 31.3085 6.248 31.1805 5.736C31.0525 5.224 31.1165 4.72267 31.3725 4.232C31.6498 3.74133 32.0445 3.304 32.5565 2.92C33.0898 2.536 33.5378 2.312 33.9005 2.248C34.2845 2.16267 34.5405 2.12 34.6685 2.12C34.8178 2.09867 34.9458 2.09867 35.0525 2.12C35.1805 2.14133 35.3085 2.17333 35.4365 2.216C35.5858 2.23733 35.7565 2.26933 35.9485 2.312L36.0445 2.408C37.0898 3.19733 37.3565 4.104 36.8445 5.128ZM43.9805 4.52C43.7672 5.032 43.4365 5.49066 42.9885 5.896C42.5618 6.28 42.1245 6.55733 41.6765 6.728C41.2498 6.87733 40.9725 6.952 40.8445 6.952C40.7165 6.952 40.3538 6.89867 39.7565 6.792H39.7245C39.7032 6.792 39.6712 6.77066 39.6285 6.728C38.8605 6.32267 38.4125 5.82133 38.2845 5.224C38.1565 4.60533 38.2205 4.008 38.4765 3.432C38.7538 2.856 39.1485 2.344 39.6605 1.896C40.1938 1.42667 40.6418 1.16 41.0045 1.096C41.3885 1.01067 41.6445 0.967999 41.7725 0.967999C41.9218 0.946664 42.0605 0.946664 42.1885 0.967999C42.3378 0.967999 42.6365 1.04267 43.0845 1.192C44.1512 2.25867 44.4498 3.368 43.9805 4.52ZM45.954 29.768L45.922 30.536C45.922 30.664 45.9433 30.92 45.986 31.304C46.178 31.5387 46.3807 31.592 46.594 31.464C46.7647 31.3573 47.1487 31.0587 47.746 30.568C48.7273 29.096 49.538 27.6453 50.178 26.216C51.65 22.8667 52.6953 20.008 53.314 17.64C53.506 16.936 53.6873 16.2427 53.858 15.56C54.05 14.8773 54.2313 14.184 54.402 13.48C54.594 12.7547 54.8073 12.008 55.042 11.24V11.112C55.4047 9.85333 56.3327 8.872 57.826 8.168C59.2553 7.464 60.482 7.35733 61.506 7.848C61.9967 8.08267 62.3487 8.488 62.562 9.064C62.7753 9.61867 62.754 10.376 62.498 11.336C62.0073 12.808 61.5167 14.3547 61.026 15.976C60.5353 17.5973 60.0127 19.2293 59.458 20.872C58.9033 22.4933 58.2847 24.0827 57.602 25.64C56.9193 27.1973 56.13 28.6267 55.234 29.928C53.25 32.8293 50.9033 34.7493 48.194 35.688C47.8953 35.816 47.6393 35.8907 47.426 35.912C47.234 35.9333 46.946 35.9653 46.562 36.008C46.178 36.072 45.6873 36.0827 45.09 36.04C44.514 36.0187 43.9487 35.9227 43.394 35.752C42.114 35.3893 41.3247 34.7493 41.026 33.832C40.6847 32.552 40.5567 31.624 40.642 31.048C40.706 30.4507 40.8233 29.9707 40.994 29.608C41.1647 29.2453 41.378 28.8613 41.634 28.456H41.666C41.858 28.0933 42.1567 27.784 42.562 27.528C42.9887 27.272 43.426 27.112 43.874 27.048C44.3433 26.9627 44.77 26.9947 45.154 27.144C45.5593 27.2933 45.826 27.5813 45.954 28.008C45.9753 28.2427 45.986 28.5413 45.986 28.904C45.986 29.2667 45.9753 29.5547 45.954 29.768ZM64.4995 34.856C63.4115 34.8987 62.4088 34.76 61.4915 34.44C60.5955 34.1413 59.8595 33.7253 59.2835 33.192C58.7288 32.6587 58.3768 32.04 58.2275 31.336C58.0782 30.6107 58.2062 29.8747 58.6115 29.128C59.1662 28.232 60.2755 27.9653 61.9395 28.328C63.1982 28.584 64.0622 28.7227 64.5315 28.744C65.0222 28.7653 65.4382 28.7013 65.7795 28.552C67.3368 28.04 68.2115 27.4853 68.4035 26.888C68.5315 26.44 68.2542 25.9173 67.5715 25.32C67.2942 25.064 66.9848 24.808 66.6435 24.552C66.3022 24.296 66.0142 24.04 65.7795 23.784C64.7128 22.9947 63.8702 22.088 63.2515 21.064C62.6542 20.0187 62.4088 18.888 62.5155 17.672C62.6222 16.456 62.8248 15.4533 63.1235 14.664C63.4222 13.8533 63.7955 13.1387 64.2435 12.52C65.0328 11.432 66.0568 10.5467 67.3155 9.864C68.7662 9.11733 69.9288 8.63733 70.8035 8.424C72.5315 8.04 74.2808 8.008 76.0515 8.328C76.6488 8.43467 77.1608 8.63733 77.5875 8.936C78.0142 9.23467 78.4408 9.544 78.8675 9.864C79.6142 10.6107 79.7955 11.368 79.4115 12.136C79.2622 12.4773 79.0275 12.7547 78.7075 12.968C78.3875 13.1813 78.0462 13.2987 77.6835 13.32C77.7262 13.896 77.6195 14.3227 77.3635 14.6C76.8728 15.0907 76.0195 15.4107 74.8035 15.56C73.0542 15.432 71.8702 15.528 71.2515 15.848C70.5262 16.232 70.2595 17.064 70.4515 18.344C70.4942 18.6213 70.6648 18.9093 70.9635 19.208C71.2835 19.5067 71.6462 19.8267 72.0515 20.168C72.4782 20.5093 72.9155 20.8933 73.3635 21.32C73.8328 21.7467 74.2382 22.2373 74.5795 22.792C75.7742 24.7547 75.6782 27.048 74.2915 29.672C73.2675 31.6347 71.5182 33.1067 69.0435 34.088C67.7635 34.6 66.2488 34.856 64.4995 34.856ZM82.6038 10.28C83.0091 9.29867 83.5851 8.94667 84.3318 9.224C84.5451 8.75467 84.7264 8.456 84.8758 8.328C85.0464 8.2 85.2171 8.104 85.3878 8.04C85.5584 7.95467 85.7398 7.86933 85.9318 7.784C86.1238 7.69866 86.4224 7.624 86.8278 7.56C87.2331 7.496 87.6811 7.464 88.1718 7.464C88.6624 7.44267 89.1531 7.464 89.6438 7.528C90.1558 7.592 90.5824 7.73067 90.9238 7.944C91.7558 8.43467 91.9371 9.224 91.4678 10.312C91.5104 10.2907 91.4998 10.312 91.4358 10.376L91.1478 10.92L90.9238 11.208C90.8171 11.3147 90.4864 11.9653 89.9318 13.16C89.4838 14.0133 89.0251 14.856 88.5558 15.688C87.7878 17.1173 87.3184 18.0347 87.1478 18.44C87.8944 18.0347 88.7584 17.448 89.7398 16.68C91.5958 15.2507 92.7798 14.3973 93.2917 14.12C93.8038 13.8427 94.1558 13.672 94.3478 13.608C94.5611 13.544 94.7638 13.5333 94.9558 13.576C95.1478 13.5973 95.3504 13.6507 95.5638 13.736L96.3638 14.056C96.8758 14.2267 97.1531 14.8453 97.1958 15.912C97.2171 16.9573 97.0038 17.7467 96.5558 18.28C94.6144 20.7973 92.4278 22.4827 89.9958 23.336C89.2491 23.6133 88.4811 23.848 87.6918 24.04C88.8224 24.168 89.8998 24.9147 90.9238 26.28C91.7558 27.3893 92.3531 28.5307 92.7158 29.704C93.0998 30.8773 93.3984 31.752 93.6118 32.328C93.8251 32.8827 93.9104 33.3093 93.8678 33.608C93.8464 33.928 93.6651 34.1627 93.3238 34.312C93.0038 34.4827 92.4491 34.6427 91.6598 34.792C91.2971 34.856 90.5504 34.4293 89.4198 33.512C88.9291 33.1067 88.4064 32.6693 87.8518 32.2C87.2971 31.7093 86.7424 31.2507 86.1878 30.824C84.9078 29.8213 84.0118 29.2987 83.4998 29.256C83.4571 29.256 83.3718 29.2347 83.2438 29.192L82.6678 30.632C82.3691 31.336 82.0598 32.0827 81.7398 32.872C81.4411 33.64 81.0784 34.3333 80.6518 34.952C79.9904 35.4 79.2224 35.5813 78.3478 35.496C77.3451 35.3893 76.6837 34.984 76.3637 34.28C76.1504 33.6187 76.5024 31.6773 77.4198 28.456C78.0384 26.1947 78.5718 24.2107 79.0198 22.504C79.4678 20.7973 79.8518 19.3893 80.1718 18.28C80.4918 17.1493 80.7264 16.2747 80.8758 15.656C81.0251 15.016 81.1744 14.3973 81.3238 13.8C81.6864 12.4133 82.1131 11.24 82.6038 10.28ZM101.871 11.816C103.215 10.28 104.708 9.32 106.351 8.936C107.482 8.65867 108.548 8.70133 109.551 9.064C110.34 8.232 111.364 7.93333 112.623 8.168C113.775 8.38133 114.756 9.032 115.567 10.12C115.61 10.2693 115.695 10.4933 115.823 10.792C115.972 11.0907 116.111 11.4213 116.239 11.784C117.178 13.96 117.252 16.8187 116.463 20.36C115.482 24.7547 113.743 28.4773 111.247 31.528C110.479 32.4667 109.615 33.2453 108.655 33.864C107.119 35.0373 105.284 35.56 103.151 35.432C101.828 35.368 100.719 35.0373 99.823 34.44C96.2603 32.6693 95.0977 28.9787 96.335 23.368C97.359 18.76 99.2043 14.9093 101.871 11.816ZM102.255 28.808L102.223 29L102.287 29.352C102.415 30.0133 102.628 30.5253 102.927 30.888C103.226 31.2293 103.471 31.4427 103.663 31.528C103.876 31.3573 104.09 31.1973 104.303 31.048C104.516 30.8987 104.708 30.7173 104.879 30.504C106.33 28.712 107.46 26.3653 108.271 23.464C109.082 20.5627 109.38 17.8747 109.167 15.4C108.335 16.4667 107.46 17.6933 106.543 19.08C105.626 20.4667 104.9 21.6507 104.367 22.632C103.151 24.9147 102.447 26.9733 102.255 28.808ZM126.917 34.536C126.469 34.664 126.042 34.728 125.637 34.728C125.231 34.7493 124.815 34.7707 124.389 34.792C123.983 34.8133 123.418 34.824 122.693 34.824C121.967 34.824 120.879 34.8027 119.429 34.76C119.087 34.7813 118.746 34.792 118.405 34.792C118.063 34.792 117.743 34.728 117.445 34.6C116.783 34.3227 116.335 33.6827 116.101 32.68C115.994 32.2107 115.877 31.88 115.748 31.688C115.599 31.496 115.482 31.3147 115.396 31.144C115.183 30.8027 115.204 30.2373 115.46 29.448C115.695 28.6587 116.005 27.688 116.389 26.536C116.773 25.3627 117.21 24.1253 117.701 22.824C118.853 19.7307 119.887 17.2773 120.805 15.464C121.167 14.6533 121.477 13.9493 121.733 13.352C122.01 12.7547 122.255 12.2427 122.469 11.816C122.682 11.368 122.789 11.1333 122.789 11.112C123.002 10.3013 123.823 9.61867 125.253 9.064C126.639 8.488 127.898 8.33867 129.029 8.616C130.287 8.936 130.842 9.768 130.693 11.112C130.394 12.4347 129.946 13.7573 129.349 15.08C128.773 16.4027 128.111 17.7893 127.365 19.24C126.618 20.6907 125.807 22.2267 124.933 23.848C124.058 25.4693 123.194 27.2293 122.341 29.128C122.319 29.2133 122.362 29.288 122.469 29.352C122.746 29.3307 123.13 29.2453 123.621 29.096C124.133 28.9467 124.655 28.8187 125.189 28.712C125.743 28.584 126.287 28.52 126.821 28.52C127.354 28.52 127.802 28.6587 128.165 28.936C128.143 29.32 128.239 29.6293 128.453 29.864C128.666 30.0773 128.879 30.2907 129.093 30.504C129.626 31.0587 129.669 31.7947 129.221 32.712C128.794 33.608 128.026 34.216 126.917 34.536ZM137.982 28.968C139.219 29.096 140.137 29.16 140.734 29.16C141.353 29.16 142.281 29.0747 143.518 28.904C143.902 29.032 144.126 29.192 144.19 29.384C144.254 29.576 144.275 29.7787 144.254 29.992C144.233 30.184 144.243 30.376 144.286 30.568C144.329 30.76 144.531 30.92 144.894 31.048C145.086 31.112 145.139 31.304 145.054 31.624C144.99 31.9227 144.819 32.2533 144.542 32.616C143.838 33.5333 143.006 34.1733 142.046 34.536C140.51 34.92 139.305 35.144 138.43 35.208C136.979 35.3147 135.401 35.2613 133.694 35.048C131.817 34.7067 130.91 33.928 130.974 32.712C130.974 28.232 131.955 23.7307 133.918 19.208C134.558 17.736 135.283 16.1893 136.094 14.568C136.265 14.2267 136.361 13.8427 136.382 13.416C136.425 12.9893 136.457 12.5733 136.478 12.168C136.499 11.7627 136.563 11.4 136.67 11.08C136.777 10.76 137.001 10.536 137.342 10.408C141.779 8.63733 145.289 7.95467 147.87 8.36C148.766 8.38133 149.353 8.69066 149.63 9.288C149.929 9.864 149.961 10.5147 149.726 11.24C149.513 11.9653 149.075 12.648 148.414 13.288C147.774 13.928 146.963 14.3227 145.982 14.472C144.723 14.8347 143.955 15.08 143.678 15.208C143.145 15.464 142.761 15.8053 142.526 16.232C142.227 16.7013 141.95 17.1493 141.694 17.576C141.438 18.0027 141.257 18.4613 141.15 18.952L141.022 19.656C141.427 19.848 141.918 19.912 142.494 19.848C143.091 19.7627 143.635 19.688 144.126 19.624C144.638 19.5387 145.043 19.528 145.342 19.592C145.662 19.656 145.726 19.976 145.534 20.552C145.363 21.1067 145.033 21.736 144.542 22.44C144.073 23.144 143.401 23.656 142.526 23.976C141.971 24.0827 141.587 24.168 141.374 24.232C141.182 24.2747 141.033 24.3067 140.926 24.328C140.777 24.3493 140.35 24.3813 139.646 24.424C138.643 26.1307 138.035 27.4533 137.822 28.392C137.737 28.776 137.79 28.968 137.982 28.968ZM149.707 20.584C150.134 19.1547 150.475 18.056 150.731 17.288C151.009 16.4987 151.275 15.7947 151.531 15.176C151.787 14.5573 152.075 13.96 152.395 13.384C152.737 12.808 153.099 12.2853 153.483 11.816C153.889 11.3253 154.315 10.9413 154.763 10.664C155.211 10.3867 155.681 10.248 156.171 10.248C156.662 10.248 157.174 10.44 157.707 10.824C158.561 12.9573 159.083 14.3867 159.275 15.112C159.531 16.1787 159.766 17.6827 159.979 19.624C160.171 19.1333 160.385 18.6213 160.619 18.088C160.875 17.5333 161.121 16.9787 161.355 16.424C162.017 15.016 162.433 13.9493 162.603 13.224C163.073 11.7307 164.043 10.6107 165.515 9.864C166.795 9.224 167.99 9.02133 169.099 9.256C169.547 9.34133 169.857 9.52267 170.027 9.8C170.219 10.0773 170.219 10.3653 170.027 10.664C169.857 10.9627 169.793 11.2507 169.835 11.528C169.899 11.784 169.953 12.0933 169.995 12.456C170.059 13.4373 169.889 14.312 169.483 15.08C169.078 15.8267 168.662 16.7653 168.235 17.896C167.809 19.0053 167.371 20.1893 166.923 21.448C166.497 22.7067 166.059 23.9867 165.611 25.288C165.163 26.5893 164.726 27.7733 164.299 28.84C163.361 31.2933 162.593 32.648 161.995 32.904C161.185 33.3947 160.587 33.6827 160.203 33.768C159.713 33.8533 159.019 33.8533 158.123 33.768C157.569 33.7253 157.089 33.0107 156.683 31.624C156.449 30.8773 156.235 29.8427 156.043 28.52C155.702 26.216 155.467 24.9467 155.339 24.712C154.486 27.4853 153.878 29.2347 153.515 29.96C153.174 30.6853 152.907 31.1653 152.715 31.4C152.545 31.6347 152.331 31.944 152.075 32.328C151.798 33.096 151.137 33.6613 150.091 34.024C149.195 34.3653 148.385 34.4187 147.659 34.184C146.87 33.928 146.635 33.4373 146.955 32.712C147.19 30.152 148.107 26.1093 149.707 20.584ZM187.592 20.008C187.506 20.9253 187.336 21.864 187.08 22.824C186.845 23.784 186.493 24.7227 186.024 25.64C185.576 26.5573 185.032 27.4427 184.392 28.296C183.773 29.1493 183.08 29.9387 182.312 30.664C181.544 31.3893 180.722 31.9973 179.848 32.488C177.97 33.5973 176.157 33.992 174.408 33.672C174.024 34.504 173.448 35.0267 172.68 35.24C171.933 35.4747 171.186 35.4747 170.44 35.24C169.714 35.0267 169.074 34.6107 168.52 33.992C167.965 33.3733 167.688 32.5307 167.688 31.464C167.688 30.376 167.762 29.2667 167.912 28.136C168.061 27.0053 168.264 25.9173 168.52 24.872C168.925 23.144 169.426 21.5227 170.024 20.008C171.432 16.5733 172.232 14.1627 172.424 12.776C172.701 10.92 173.213 9.768 173.96 9.32C175.197 8.59467 176.37 8.28533 177.48 8.392C178.589 8.49866 179.592 8.76533 180.488 9.192C181.96 9.896 183.549 11.08 185.256 12.744C187.133 14.5573 187.912 16.9787 187.592 20.008ZM175.016 29.608C176.104 29.0533 176.978 28.488 177.64 27.912C178.322 27.3147 178.962 26.7707 179.56 26.28C180.477 25.3627 181.149 24.2747 181.576 23.016C182.514 20.2427 181.917 18.1413 179.784 16.712C179.464 16.4773 178.984 16.1573 178.344 15.752C178.045 16.4347 177.821 17.1493 177.672 17.896C177.544 18.6427 177.362 19.368 177.128 20.072L176.264 22.888L175.56 25.928C175.517 26.3547 175.453 26.7707 175.368 27.176C175.282 27.56 175.208 27.9653 175.144 28.392L175.016 29.608ZM192.448 10.28C192.853 9.29867 193.429 8.94667 194.176 9.224C194.389 8.75467 194.57 8.456 194.72 8.328C194.89 8.2 195.061 8.104 195.232 8.04C195.402 7.95467 195.584 7.86933 195.776 7.784C195.968 7.69866 196.266 7.624 196.672 7.56C197.077 7.496 197.525 7.464 198.016 7.464C198.506 7.44267 198.997 7.464 199.488 7.528C200 7.592 200.426 7.73067 200.768 7.944C201.6 8.43467 201.781 9.224 201.312 10.312C201.354 10.2907 201.344 10.312 201.28 10.376L200.992 10.92L200.768 11.208C200.661 11.3147 200.33 11.9653 199.776 13.16C199.328 14.0133 198.869 14.856 198.4 15.688C197.632 17.1173 197.162 18.0347 196.992 18.44C197.738 18.0347 198.602 17.448 199.584 16.68C201.44 15.2507 202.624 14.3973 203.135 14.12C203.648 13.8427 204 13.672 204.192 13.608C204.405 13.544 204.608 13.5333 204.8 13.576C204.992 13.5973 205.194 13.6507 205.408 13.736L206.208 14.056C206.72 14.2267 206.997 14.8453 207.04 15.912C207.061 16.9573 206.848 17.7467 206.4 18.28C204.458 20.7973 202.272 22.4827 199.84 23.336C199.093 23.6133 198.325 23.848 197.536 24.04C198.666 24.168 199.744 24.9147 200.768 26.28C201.6 27.3893 202.197 28.5307 202.56 29.704C202.944 30.8773 203.242 31.752 203.456 32.328C203.669 32.8827 203.754 33.3093 203.712 33.608C203.69 33.928 203.509 34.1627 203.168 34.312C202.848 34.4827 202.293 34.6427 201.504 34.792C201.141 34.856 200.394 34.4293 199.264 33.512C198.773 33.1067 198.25 32.6693 197.696 32.2C197.141 31.7093 196.586 31.2507 196.032 30.824C194.752 29.8213 193.856 29.2987 193.344 29.256C193.301 29.256 193.216 29.2347 193.088 29.192L192.512 30.632C192.213 31.336 191.904 32.0827 191.584 32.872C191.285 33.64 190.922 34.3333 190.496 34.952C189.834 35.4 189.066 35.5813 188.192 35.496C187.189 35.3893 186.527 34.984 186.207 34.28C185.994 33.6187 186.346 31.6773 187.264 28.456C187.882 26.1947 188.416 24.2107 188.864 22.504C189.312 20.7973 189.696 19.3893 190.016 18.28C190.336 17.1493 190.57 16.2747 190.72 15.656C190.869 15.016 191.018 14.3973 191.168 13.8C191.53 12.4133 191.957 11.24 192.448 10.28Z" fill="url(#paint0_linear_130_8488)"/>
<defs>
<linearGradient id="paint0_linear_130_8488" x1="104" y1="-5" x2="104" y2="45" gradientUnits="userSpaceOnUse">
<stop offset="0.485" stop-color="#FF5900"/>
<stop offset="1" stop-color="#BE9B6E"/>
</linearGradient>
</defs>
</svg>
