<svg width="269" height="134" viewBox="0 0 269 134" fill="none" xmlns="http://www.w3.org/2000/svg">
<path d="M30.8499 3.79321L263.93 3.90321L264.59 112.743L263.55 113.823C259.94 113.943 256.33 114.483 252.72 114.563C251.78 114.583 250.74 114.133 249.8 114.703C250.43 86.0032 250.92 57.4732 250.32 28.7532C243.27 23.6732 248.63 18.4932 245.91 11.1132C218.26 9.3632 44.1098 13.3932 33.7498 11.1132C32.1598 10.7632 29.9998 8.4532 29.0898 7.0332C29.5998 6.1132 29.0898 4.1032 30.8398 3.7832L30.8499 3.79321Z" fill="#FD5A00"/>
<path d="M34.7799 29.2639H208.13C208.19 42.2039 217.02 50.3139 229.04 53.2039V94.5239C228.27 96.5739 209.41 96.3539 207.62 118.964H34.7699C34.7699 105.494 26.1299 98.2839 13.8599 95.0239V53.1939C25.5899 50.2139 34.6999 41.9739 34.7699 29.2539L34.7799 29.2639Z" fill="#FD5A00"/>
<path d="M117.697 47.1561C136.889 44.7961 155.243 69.6435 140.843 91.1126C129.845 107.507 110.046 106.788 100.19 89.9208C88.5455 69.9829 103.385 48.9242 117.697 47.164V47.1561Z" fill="black"/>
<path d="M186.96 61.5136C207.07 59.5036 204.06 90.8836 185.45 86.2036C173 83.0736 173.86 62.8236 186.96 61.5136Z" fill="#FEFEFE"/>
<path d="M52.4101 61.5137C71.9001 59.5837 69.3801 90.4837 50.9001 86.2037C37.9001 83.1937 38.9901 62.8337 52.4101 61.5137Z" fill="#FEFEFE"/>
<path d="M250.33 28.7637C250.92 57.4737 250.44 86.0137 249.81 114.714C249.76 116.974 249.71 119.234 249.66 121.484" stroke="#FD5A00" stroke-width="5.54" stroke-linecap="square" stroke-linejoin="round"/>
<path d="M13.2327 12.9667L13.0071 6.41609L16.2874 6.30327L16.2898 6.29246C18.976 6.19491 21.7565 6.32341 24.4461 6.56161L24.4461 6.56178L24.459 6.56258L24.7258 6.57926C24.8296 6.68677 24.9703 6.781 25.1002 6.81238V7.32495L25.5488 6.65211L25.6091 6.59182C25.6169 6.59128 25.6269 6.59044 25.638 6.5891C25.6466 6.58806 25.6609 6.58614 25.6782 6.58266C25.6907 6.58015 25.7283 6.5724 25.7732 6.55367C25.7891 6.54705 25.8165 6.53479 25.8485 6.51452L26.0302 6.45394V6.31205C26.043 6.2859 26.0544 6.25685 26.0633 6.22476C26.0968 6.10295 26.08 5.99148 26.0442 5.90342C26.0706 5.85271 26.0823 5.81054 26.0845 5.80248C26.0846 5.802 26.0847 5.80164 26.0848 5.80141C26.0913 5.77866 26.0958 5.75801 26.0986 5.7445C26.0987 5.74398 26.0988 5.74345 26.0989 5.74292C26.1 5.73825 26.1012 5.73339 26.1024 5.72832L26.1279 5.65159C26.1547 5.58935 26.1728 5.54934 26.1943 5.51164L26.1402 5.47934C26.1425 5.4633 26.1449 5.44692 26.1474 5.43034C26.1743 5.24785 26.2129 4.99974 26.2705 4.71162L26.2739 4.69482L26.2761 4.67784C26.3998 3.72322 26.9371 2.67686 27.756 1.86486C28.5721 1.05573 29.6289 0.516699 30.766 0.503527L30.8318 0.502765L30.9322 0.502297C31.0442 0.501926 31.2114 0.501601 31.4323 0.501322C31.8739 0.500763 32.529 0.500388 33.3835 0.500184C35.0923 0.499777 37.5977 0.500055 40.7861 0.500924C47.1628 0.502663 56.2709 0.506765 67.2 0.512468C89.0581 0.523876 118.2 0.541689 147.342 0.559816L164.906 0.570765C187.938 0.58514 210.035 0.598932 227.489 0.609038C238.419 0.615367 247.529 0.62025 253.907 0.622926C257.097 0.624264 259.603 0.62505 261.314 0.625189C262.169 0.625259 262.825 0.625167 263.267 0.624901C263.489 0.624768 263.657 0.624592 263.77 0.62437L263.899 0.624L263.934 0.623772L263.947 0.623585C265.747 0.62744 267.202 2.08159 267.22 3.88717C267.22 3.88757 267.22 3.88797 267.22 3.88837L267.88 112.727L267.88 112.742L267.881 112.758C267.926 113.406 267.707 113.974 267.335 114.519C266.998 115.013 266.561 115.456 266.112 115.912C266.052 115.972 265.993 116.033 265.933 116.094L265.929 116.097C265.313 116.74 264.498 117.078 263.674 117.104L263.667 117.104L263.66 117.104C262.432 117.18 261.089 117.281 259.685 117.386C256.386 117.634 252.757 117.906 249.53 117.932L249.391 111.354L252.669 111.293C254.339 111.263 256.077 111.114 257.869 110.957L258.036 110.942C258.786 110.876 259.546 110.809 260.318 110.749L260.33 112.787L261.295 112.968L261.972 111.266L263.644 110.52L263.422 109.564C262.708 109.59 262.004 109.628 261.311 109.675L260.696 8.20202L263.95 8.20356L265.162 8.20413L264.303 7.34907L260.523 3.58907L259.663 2.73366L259.67 3.94659L259.69 7.20155L33.5434 7.09482C33.5785 6.90396 33.6085 6.72394 33.6327 6.57484C33.6416 6.51959 33.6496 6.47018 33.6566 6.42659C33.6727 6.32615 33.6838 6.25664 33.6912 6.21799L33.6966 6.19017L33.6978 6.17469C33.6982 6.17232 33.6986 6.16998 33.6989 6.16765C33.6999 6.16104 33.7025 6.14397 33.704 6.12252L33.7041 6.12188C33.7046 6.115 33.7069 6.0827 33.7033 6.04241L33.7032 6.04127C33.7022 6.02931 33.696 5.95235 33.6545 5.8673C33.6334 5.82422 33.5673 5.70342 33.4151 5.63303C33.23 5.5474 33.0564 5.59583 32.9566 5.65301C32.8726 5.70117 32.8245 5.76145 32.8073 5.78397C32.7855 5.81263 32.7713 5.83776 32.7638 5.85181C32.7488 5.88011 32.7398 5.90366 32.7362 5.9134C32.7281 5.93526 32.7233 5.95298 32.7215 5.95965C32.7175 5.97461 32.7149 5.9872 32.7135 5.99461C32.7125 5.99754 32.7112 6.00116 32.7096 6.0055C32.691 6.05502 32.6316 6.18893 32.4749 6.39729C32.2524 6.67579 31.9446 6.90123 31.6666 6.98465L31.6394 6.99281L31.6133 7.00399C31.5929 7.01271 31.5754 7.0189 31.5624 7.02243C31.5607 7.0229 31.5593 7.02327 31.5581 7.02356H31.5453L31.5205 7.02605L30.8205 7.09604L30.87 8.09356L32.2468 8.09421C31.5745 9.52134 30.7356 10.8396 29.531 11.8387L29.531 11.8387L29.526 11.843C27.7487 13.3573 25.2357 13.2586 22.8896 13.026L22.8894 13.026C19.9121 12.7319 16.6475 12.8467 13.6437 12.9523C13.5061 12.9571 13.3691 12.9619 13.2327 12.9667ZM262.738 7.20299L260.69 7.20202L260.678 5.15346L262.738 7.20299ZM33.6988 6.16192C33.6988 6.1608 33.6989 6.16085 33.6987 6.16198L33.6988 6.16192Z" fill="#FD5A00" stroke="black"/>
<path d="M4 129.553L4.64 18.7832L238.22 19.2932L237.75 129.443L4 129.553Z" stroke="black" stroke-width="7.56" stroke-linecap="round" stroke-linejoin="round"/>
</svg>
