<svg width="168" height="156" viewBox="0 0 168 156" fill="none" xmlns="http://www.w3.org/2000/svg">
<g clip-path="url(#clip0_131_59)">
<path d="M133.118 126.593C127.961 130.244 118.51 134.243 112.364 136.263C112.253 136.298 112.127 136.298 112.016 136.333C111.084 136.632 110.158 136.904 109.211 137.176C96.5517 140.771 78.714 141.328 65.8177 138.486C63.8551 138.054 62.0177 137.266 60.1107 136.681C59.1503 131.533 62.8946 134.438 71.5107 134.716C94.248 135.455 122.073 132.027 137.273 113.126C159.704 85.2315 131.253 61.2519 130.257 58.3606C129.193 55.2604 133.508 60.7572 133.765 55.7969C159.488 75.8054 160.351 107.337 133.125 126.6L133.118 126.593Z" fill="#F28D66"/>
<path d="M133.118 126.593C133.445 127.136 133.466 127.798 133.501 128.397C133.654 130.947 130.494 150.719 129.478 151.917C127.794 153.889 116.025 153.575 113.067 153.324L112.364 136.263C118.51 134.242 127.961 130.243 133.118 126.593Z" fill="#FF5A01"/>
<path d="M133.758 55.7903C133.501 60.7506 129.186 55.2538 130.251 58.354C131.246 61.2453 159.697 85.2249 137.266 113.12C122.066 132.021 94.2412 135.448 71.5039 134.71C62.8878 134.431 59.1435 131.533 60.1039 136.675C62.0178 137.26 63.8552 138.04 65.8108 138.479C65.7273 139.106 65.5951 139.719 65.4768 140.339C63.3402 151.388 68.024 155.025 47.4721 153.318C48.3977 145.885 45.5721 138.458 46.0662 131.129C34.9446 125.556 29.6692 120.003 22.2153 109.852C20.552 108.55 11.3165 107.944 8.53955 107.324V82.5705L25.897 81.6927C27.5604 81.0866 26.412 73.242 37.123 64.4918C38.8629 63.0706 44.9039 59.8589 45.0153 59.3991C43.8669 49.4853 36.3574 39.4462 36.601 38.3315C36.949 36.7013 39.545 40.0523 39.7607 35.1338C49.0032 38.5754 53.4017 44.9082 55.9281 45.2217C55.0442 54.5154 63.5211 47.9945 76.0625 46.5802C89.62 45.0475 107.082 47.1724 119.902 51.8471C125.602 53.9232 129.374 58.6466 128.497 52.2651C130.272 53.3867 132.095 54.4805 133.758 55.7763V55.7903Z" fill="#FF5A01"/>
<path d="M99.2104 49.0534C103.985 47.8621 102.147 54.9612 101.667 57.8315C97.3104 57.4483 93.0511 55.7067 88.6873 55.3722C75.3665 54.3481 69.1793 60.2281 74.8306 51.5057C77.7676 51.5545 95.2225 52.2302 96.2247 51.861C96.4195 51.7913 98.4727 49.2345 99.2034 49.0534H99.2104Z" fill="#FBFDFD"/>
<path d="M43.6789 71.0329C52.0653 68.5249 55.8444 81.5109 47.2701 83.81C38.9532 86.0393 35.4456 73.4991 43.6789 71.0329Z" fill="#FBFDFD" stroke="#412E20" stroke-width="6.55" stroke-linecap="round" stroke-linejoin="round"/>
<path d="M82.375 5.51751C93.9977 3.76885 94.5197 13.0695 98.967 10.4361C109.574 29.5389 76.5428 43.988 70.0703 21.3182C74.8934 22.3701 69.4022 17.8766 74.4897 10.6102C76.0278 8.40872 79.7582 5.91462 82.382 5.51751H82.375Z" fill="#F9EF16"/>
<path d="M83.4257 7.97733C96.2872 6.2217 100.665 20.0159 91.144 26.2303C76.7166 35.6494 67.3836 10.1579 83.4257 7.97733Z" fill="#F9BD0A"/>
<path d="M97.004 54.006C95.097 54.4588 92.4523 54.1732 90.4897 54.215C84.9846 54.1105 78.8252 53.8666 73.3897 53.7621L71.1069 53.7273L71.1835 49.1641C77.5099 49.2407 84.2468 49.5403 90.5662 49.6517C91.9651 49.6657 94.2827 49.7214 95.6468 49.6448C95.5772 49.6448 95.5007 49.6726 95.438 49.7214C96.1618 49.7702 96.9413 49.7911 97.6373 49.8468C97.693 49.9025 98.0131 50.223 98.0131 50.223C98.1314 52.0483 98.208 53.0794 98.0897 53.6158C97.9853 54.2359 97.4424 54.1314 96.997 54.0129L97.004 54.006Z" fill="#412E1F"/>
<path d="M83.5998 2.00656C74.3573 2.98191 67.4741 12.2547 70.0631 21.3185C76.5426 43.9883 109.573 29.5393 98.9598 10.4364C96.0158 5.14161 89.8356 1.35169 83.5998 2.01353V2.00656Z" stroke="#412E1F" stroke-width="5.54" stroke-linecap="round" stroke-linejoin="round"/>
<path d="M154.129 82.521C162.064 81.3506 163.261 76.7247 163.442 69.4932L167.993 69.737C167.882 79.2188 164.861 85.4819 154.825 87.0285L152.577 87.3978L151.875 82.8763L154.129 82.521Z" fill="#412E1F"/>
<path d="M109.205 137.169C110.151 136.904 111.077 136.632 112.009 136.326C112.121 136.291 112.246 136.291 112.357 136.256C118.503 134.236 127.954 130.237 133.111 126.586C160.331 107.33 159.475 75.7983 133.752 55.7828C132.088 54.487 130.265 53.3932 128.49 52.2715C107.124 38.7908 79.4938 37.5786 55.9213 45.2212C53.395 44.9077 48.9964 38.5749 39.754 35.1333C36.1558 33.7957 32.2862 33.1965 28.4862 33.7817L38.4455 54.8144C32.0914 60.4087 25.4727 66.2887 22.2225 74.3353C18.2137 77.1917 5.05991 74.3493 2.93024 77.8257C2.26211 78.9195 2.11596 101.952 2.4361 103.456C3.29214 107.469 5.24086 106.585 8.53975 107.316C11.3236 107.936 20.5591 108.542 22.2155 109.845C29.6694 119.996 34.9448 125.548 46.0664 131.122C50.7364 133.462 55.114 135.148 60.0971 136.667C62.0111 137.252 63.8484 138.033 65.8041 138.471C78.7004 141.314 96.5381 140.757 109.198 137.162L109.205 137.169Z" stroke="#412E1F" stroke-width="6.55" stroke-linecap="round" stroke-linejoin="round"/>
<path d="M105.919 139.99C107.819 151.666 105.001 152.635 113.067 153.325C116.032 153.575 127.801 153.889 129.478 151.917C130.494 150.726 133.654 130.947 133.501 128.397" stroke="#412E1F" stroke-width="6.55" stroke-linecap="round" stroke-linejoin="round"/>
<path d="M65.4769 140.339C63.3403 151.388 68.0242 155.025 47.4722 153.318C44.9876 153.109 43.1085 153.966 41.5077 151.214C40.7352 149.877 38.696 132.954 37.2832 128.781" stroke="#412E1F" stroke-width="6.55" stroke-linecap="round" stroke-linejoin="round"/>
</g>
<defs>
<clipPath id="clip0_131_59">
<rect width="168" height="156" fill="white"/>
</clipPath>
</defs>
</svg>
