<svg width="80" height="102" viewBox="0 0 80 102" fill="none" xmlns="http://www.w3.org/2000/svg">
<path d="M4.47013 1.51538C7.18013 0.785385 52.9551 2.05539 60.5801 1.41039L60.5551 1.67539C58.9201 21.6054 60.0001 20.2304 78.7701 20.0054L78.8601 19.8254L79.0401 20.0054V20.2604L79.2451 78.1704L78.9801 78.4104C54.6801 77.6004 57.9951 76.4954 58.3451 100.62L58.0501 100.825C50.6951 99.9654 7.04513 101.345 4.46013 100.64C2.51013 100.105 1.64012 98.9854 1.18512 97.1104C2.02012 85.1454 0.100125 9.37038 1.18512 4.89038C1.67512 2.86538 2.46013 2.05538 4.46013 1.51538H4.47013Z" fill="#FF5A01"/>
<path d="M37.8601 24.29H42.3951C41.9051 32.465 44.4051 26.795 51.5901 32.73C48.6851 43.27 49.6951 35.815 42.5201 35.755C41.8201 50.15 43.5051 42.685 50.2051 48.225C58.2451 54.875 52.5051 66.8 42.5201 68.005L42.1401 73.675C35.1201 74.15 38.8601 73.015 37.3551 67.88C33.1201 67.775 28.9151 66.13 26.1401 62.965L28.5351 57.295C29.5801 58.24 36.9451 62.995 37.7301 61.2V51.375C37.3851 50.5 25.4051 49.705 26.6451 38.525C27.5601 30.255 37.4101 29.77 37.7301 28.95L37.8551 24.29H37.8601Z" fill="#182021"/>
<path d="M42.645 52.0107C48.085 53.7257 47.83 59.2608 42.895 61.5858L42.645 52.0107Z" fill="#FFC895"/>
<path d="M37.1001 35.6307C37.4251 35.6907 37.5301 35.7357 37.7301 36.0107V43.3157C31.2301 44.2357 33.9301 35.0307 37.1001 35.6307Z" fill="#FFC895"/>
<path d="M79.2549 78.4209V78.1659L79.0449 20.2559V20.0059" stroke="#191E21" stroke-linecap="round" stroke-linejoin="round"/>
<path d="M79.2553 78.4205L78.9903 78.4055C54.6903 77.5955 58.0053 76.4905 58.3553 100.615L58.3703 100.88" stroke="#191E21" stroke-linecap="round" stroke-linejoin="round"/>
<path d="M79.2551 78.4199L58.3701 100.885" stroke="#191E21" stroke-linecap="round" stroke-linejoin="round"/>
<path d="M60.5853 1.41039C52.9603 2.05539 7.18026 0.785385 4.47526 1.51538C2.47526 2.05538 1.69026 2.87038 1.20026 4.89038C0.115261 9.37038 2.03526 85.1454 1.20026 97.1104C1.65526 98.9854 2.52526 100.105 4.47526 100.64C7.06026 101.345 50.7103 99.9654 58.0653 100.825L58.3753 100.885" stroke="#191E21" stroke-linecap="round" stroke-linejoin="round"/>
<path d="M60.585 1.41016L78.865 19.8251L79.045 20.0051" stroke="#191E21" stroke-linecap="round" stroke-linejoin="round"/>
<path d="M60.5852 1.41016L60.5601 1.67516C58.9251 21.6052 60.0051 20.2301 78.7751 20.0051H79.0401" stroke="#191E21" stroke-linecap="round" stroke-linejoin="round"/>
</svg>
