<svg width="80" height="110" viewBox="0 0 80 110" fill="none" xmlns="http://www.w3.org/2000/svg">
<g clip-path="url(#clip0_131_85)">
<path d="M38.1268 0.66773C37.4001 0.823236 36.8513 1.11512 36.3318 1.46391C36.1175 1.60774 35.915 1.75642 35.7021 1.91269C35.6231 1.97068 35.5427 2.0297 35.4598 2.08992C35.1597 2.30769 34.8383 2.53181 34.4782 2.73586C32.9858 3.58136 30.9869 3.98953 27.0014 2.93838C26.9234 2.91784 26.825 2.87422 26.7571 2.84396C26.687 2.81272 26.6001 2.77273 26.5027 2.72789C26.482 2.71839 26.4609 2.70867 26.4394 2.69877C26.1897 2.58395 25.8653 2.43601 25.4938 2.28149C24.7447 1.96995 23.8304 1.6431 22.9847 1.50827C22.1112 1.36901 21.4616 1.45843 21.0904 1.78706C20.7446 2.09331 20.4654 2.77431 20.7604 4.2929L20.7608 4.29502L20.7608 4.29502C20.76 4.29086 20.7607 4.29254 20.764 4.30128C20.7715 4.32127 20.7931 4.37823 20.8436 4.48672C20.907 4.62277 20.998 4.80327 21.1152 5.02512C21.349 5.46792 21.6773 6.05732 22.0732 6.75035C22.8644 8.13542 23.9177 9.92016 25.0071 11.7443C27.0438 15.1545 29.2019 18.6942 29.999 19.9993H49.8829C50.416 19.0788 51.6117 17.123 52.9804 14.8841C53.6285 13.8241 54.3153 12.7007 54.9889 11.5937C56.1156 9.74218 57.2082 7.93206 58.0299 6.52726C58.4411 5.82437 58.7822 5.22668 59.0253 4.77755C59.1471 4.55253 59.2417 4.36948 59.3075 4.23149C59.3595 4.12264 59.3818 4.06513 59.3898 4.04459L38.1268 0.66773ZM38.1268 0.66773L38.3456 0.631145C40.8519 0.212117 42.3844 0.876641 43.8145 1.70032C44.0323 1.82575 44.2507 1.95734 44.472 2.09072C45.7023 2.83212 47.0246 3.62893 48.8501 3.73153L38.1268 0.66773ZM59.391 2.40675C59.5083 2.75649 59.5386 3.27764 59.3932 4.03816L48.8504 3.73154C49.238 3.7535 49.7221 3.66104 50.2256 3.53001C50.7417 3.39569 51.3335 3.20525 51.9545 2.99873C52.1276 2.94121 52.303 2.88239 52.4803 2.82296C53.59 2.45094 54.771 2.05503 55.8672 1.80291C56.5007 1.65721 57.0871 1.56423 57.5989 1.54963C58.115 1.5349 58.5183 1.6012 58.8104 1.74124C59.0842 1.87249 59.2803 2.07665 59.391 2.40675Z" fill="#FF5A01" stroke="black"/>
<path d="M50.59 23.8224L50.5907 23.8225C51.3633 23.9828 51.8331 24.3298 52.1061 24.7303C52.3841 25.1382 52.491 25.6505 52.444 26.1888C52.3968 26.7282 52.1963 27.2673 51.8948 27.6973C51.5917 28.1296 51.2112 28.4188 50.8216 28.5216L50.9491 29.0051L50.8223 28.5214C50.8228 28.5213 50.8225 28.5213 50.8215 28.5215C50.8165 28.5225 50.7922 28.5271 50.7387 28.5334C50.6806 28.5403 50.6035 28.5473 50.5065 28.5544C50.3128 28.5686 50.0539 28.5819 49.7365 28.5942C49.1025 28.6187 48.2495 28.6386 47.2483 28.654C45.2467 28.6849 42.6636 28.6978 40.0788 28.6949C37.4941 28.6921 34.91 28.6734 32.9066 28.6411C31.9046 28.6249 31.05 28.6054 30.4141 28.5828C30.0958 28.5715 29.8351 28.5595 29.6394 28.547C29.5414 28.5408 29.4625 28.5346 29.4023 28.5286C29.3723 28.5256 29.3487 28.5228 29.3309 28.5204C29.3141 28.5181 29.3065 28.5166 29.3055 28.5164C29.3054 28.5164 29.3053 28.5164 29.3054 28.5164L29.3049 28.5163C28.1445 28.2662 27.5042 27.2452 27.4876 26.1614C27.4713 25.0881 28.0682 24.0748 29.2995 23.8229L29.2995 23.8229C29.2997 23.8228 29.3075 23.8213 29.3261 23.8189C29.344 23.8166 29.3675 23.8141 29.3974 23.8113C29.4572 23.8057 29.5354 23.8 29.6324 23.7943C29.8261 23.7829 30.0838 23.7721 30.3984 23.762C31.0268 23.7419 31.8711 23.725 32.861 23.7114C34.84 23.6841 37.3925 23.6702 39.946 23.6699C42.4995 23.6696 45.052 23.6829 47.0309 23.7099C48.0207 23.7234 48.865 23.7404 49.4933 23.7607C49.8078 23.7709 50.0654 23.7819 50.259 23.7935C50.3558 23.7993 50.4339 23.8051 50.4935 23.8107C50.5233 23.8136 50.5467 23.8162 50.5643 23.8185C50.583 23.821 50.5905 23.8225 50.59 23.8224Z" fill="#FF5A01" stroke="black"/>
<path d="M2.67816 67.4625C6.96386 52.8077 16.8784 38.3724 26.227 31.8366C35.2241 32.6462 44.6672 32.6763 53.6578 31.8374C62.977 38.4767 72.8353 52.5381 77.1977 66.9098C81.5866 81.3692 80.3571 95.8918 67.7776 103.579L68.0383 104.006L67.7776 103.579C61.3692 107.496 50.9507 109.453 40.4279 109.501C29.9078 109.549 19.4149 107.688 12.8704 104.085C6.31763 100.477 2.70851 95.0068 1.26003 88.6067C-0.192393 82.1893 0.526161 74.8212 2.67816 67.4625Z" fill="#FF5A01" stroke="black"/>
<path d="M37.7442 47.0439H42.1475C42.8001 54.1481 42.4712 49.6984 49.7879 53.3605C48.0152 62.9146 47.188 55.8973 39.301 57.0993C35.6067 57.6619 34.3222 61.4365 37.2304 63.7994C39.1674 65.3747 50.4404 67.037 51.3396 74.7549C52.0486 80.8311 47.5117 85.2757 42.0191 86.8714L41.6286 91.8991C34.276 93.1062 38.1604 88.1041 36.9683 87.2602C36.5881 86.9891 30.4635 87.0556 28.0332 84.8103L29.4565 79.2711C32.9041 81.005 43.1443 83.235 44.0846 77.5935C45.0403 71.8601 35.4886 71.7526 31.5271 68.1878C28.2593 65.2417 27.5708 59.9583 29.8418 56.2042C33.2484 50.5781 38.7667 54.854 37.739 47.0542L37.7442 47.0439Z" fill="black"/>
</g>
<defs>
<clipPath id="clip0_131_85">
<rect width="80" height="110" fill="white"/>
</clipPath>
</defs>
</svg>
